<?xml version="1.0" encoding="UTF-8"?>
<svg id="Product_Page" data-name="Product Page" xmlns="http://www.w3.org/2000/svg" viewBox="0 0 25 25">
  <defs>
    <style>
      .cls-1 {
        fill: #003087;
        stroke-width: 0px;
      }
    </style>
  </defs>
  <path class="cls-1" d="M15.52,4.87h-6.04c-2.55,0-4.61,2.06-4.61,4.61v6.05c0,2.55,2.07,4.61,4.61,4.61h6.04c2.55,0,4.61-2.06,4.61-4.61v-6.05c0-2.55-2.06-4.61-4.61-4.61ZM18.7,15.55c0,1.74-1.41,3.14-3.14,3.14h-6.11c-1.74,0-3.14-1.41-3.14-3.14v-6.11c0-1.74,1.41-3.14,3.14-3.14h6.11c1.74,0,3.14,1.41,3.14,3.14v6.11Z"/>
  <path class="cls-1" d="M15.05,9.95c-.65-.65-1.55-1.06-2.55-1.06s-1.9.4-2.55,1.06c-.65.65-1.05,1.55-1.05,2.55,0,1.99,1.61,3.6,3.6,3.6,1,0,1.9-.4,2.55-1.05.65-.65,1.05-1.55,1.05-2.55s-.4-1.9-1.05-2.55ZM14.25,14.25c-.45.45-1.07.72-1.75.72-1.37,0-2.47-1.11-2.47-2.47,0-.68.28-1.3.72-1.75.45-.45,1.07-.72,1.75-.72s1.3.28,1.75.72c.45.45.72,1.07.72,1.75s-.28,1.3-.72,1.75Z"/>
  <circle class="cls-1" cx="16.37" cy="8.49" r=".79"/>
</svg>