<?xml version="1.0" encoding="UTF-8"?>
<svg id="Product_Page" data-name="Product Page" xmlns="http://www.w3.org/2000/svg" viewBox="0 0 25 25">
  <defs>
    <style>
      .cls-1 {
        fill: #003087;
        stroke-width: 0px;
      }
    </style>
  </defs>
  <path class="cls-1" d="M7.66,13.68c.25.12.55.03.7-.2.09-.15.18-.34.2-.58.03-.38-.12-.68-.26-.88-.2-.28-.33-.61-.37-.95-.04-.27-.06-.57-.06-.89,0-.59.09-1.09.19-1.47.2-.44.62-1.2,1.43-1.88.7-.59,1.4-.88,1.84-1.02.37-.1.88-.2,1.5-.19.53.01.97.1,1.3.19,1.26.35,1.92,1.41,2.08,1.65.6.94.61,1.86.63,2.48.01.6.02,2.08-1.01,3.42-.63.81-1.37,1.24-1.81,1.45-.1.02-.7.14-1.26-.24-.57-.38-.69-.98-.71-1.09,0-.55.08-.98.15-1.27.19-.85.46-1.2.65-2.07.1-.47.12-.86.13-1.1,0-.07,0-.58-.42-.93-.33-.28-.8-.35-1.22-.18-.21.07-.61.24-.95.63-.62.71-.51,1.6-.49,1.75.01.31.04.67.12,1.06h0c.11.58.1,1.17-.03,1.74-.09.38-.18.77-.28,1.17-.12.48-.25.95-.39,1.4-.27.92-.41,1.87-.42,2.84,0,.08,0,.17,0,.25,0,.71.02,1.38.05,2.03,0,.02.03.03.04.02.34-.35.72-.8,1.08-1.36.02-.03.04-.06.06-.09.35-.56.57-1.18.69-1.82.05-.26.11-.52.18-.81.15-.57.34-1.07.52-1.49,0-.02.03-.02.04,0,.21.23.66.67,1.37.89.45.14.85.14,1.11.12.5-.04,1.54-.19,2.58-.91,1.44-.99,1.93-2.4,2.07-2.85.25-.7.7-2.35.14-4.25-.23-.76-.56-1.37-.86-1.82-.36-.43-1.11-1.2-2.31-1.73-1.1-.48-2.08-.54-2.63-.53-.59-.03-1.47,0-2.48.3-1.39.43-2.33,1.18-2.82,1.64-.34.33-.84.9-1.22,1.73-.17.37-.6,1.25-.52,2.43.04.5.24,2.68,1.7,3.4,0,0,0,0,0,0Z"/>
</svg>