<svg width="190" height="252" viewBox="0 0 190 252" fill="none" xmlns="http://www.w3.org/2000/svg">
<g filter="url(#filter0_d_4233_8154)">
<rect x="5" y="1" width="180" height="242" rx="9" fill="url(#paint0_linear_4233_8154)" fill-opacity="0.54" stroke="#808080" stroke-width="2"/>
<path d="M21.4922 147.949L22.6953 147.525C22.9688 148.008 23.3424 148.391 23.8164 148.674C24.2995 148.956 24.8555 149.098 25.4844 149.098C26.1589 149.098 26.7057 148.934 27.125 148.605C27.5443 148.277 27.7539 147.835 27.7539 147.279C27.7539 146.988 27.6901 146.732 27.5625 146.514C27.444 146.286 27.2526 146.09 26.9883 145.926C26.724 145.762 26.4733 145.63 26.2363 145.529C26.0085 145.429 25.6986 145.315 25.3066 145.188C24.222 144.832 23.4792 144.527 23.0781 144.271C22.2578 143.743 21.8477 143.018 21.8477 142.098C21.8477 141.259 22.1712 140.589 22.8184 140.088C23.4746 139.577 24.3359 139.322 25.4023 139.322C26.2409 139.322 26.9655 139.518 27.5762 139.91C28.1868 140.293 28.6289 140.781 28.9023 141.373L27.7676 141.756C27.2116 140.89 26.4141 140.457 25.375 140.457C24.7096 140.457 24.181 140.607 23.7891 140.908C23.4062 141.209 23.2148 141.605 23.2148 142.098C23.2148 142.38 23.2832 142.631 23.4199 142.85C23.5566 143.068 23.7663 143.26 24.0488 143.424C24.3314 143.579 24.6003 143.706 24.8555 143.807C25.1107 143.907 25.4479 144.025 25.8672 144.162C25.9857 144.199 26.0723 144.226 26.127 144.244C26.5645 144.39 26.9336 144.536 27.2344 144.682C27.5443 144.818 27.8542 145.005 28.1641 145.242C28.4831 145.47 28.7201 145.753 28.875 146.09C29.0391 146.418 29.1211 146.801 29.1211 147.238C29.1211 148.186 28.7839 148.924 28.1094 149.453C27.444 149.982 26.5599 150.246 25.457 150.246C24.5091 150.246 23.6934 150.041 23.0098 149.631C22.3353 149.212 21.8294 148.651 21.4922 147.949ZM31.5137 146.24C31.5137 147.161 31.7188 147.881 32.1289 148.4C32.5391 148.911 33.0404 149.166 33.6328 149.166C34.2161 149.166 34.7129 148.911 35.123 148.4C35.5332 147.881 35.7383 147.161 35.7383 146.24C35.7383 145.301 35.5332 144.577 35.123 144.066C34.7129 143.556 34.2161 143.301 33.6328 143.301C33.0495 143.301 32.5482 143.556 32.1289 144.066C31.7188 144.568 31.5137 145.292 31.5137 146.24ZM30.2012 146.24C30.2012 145.101 30.4974 144.148 31.0898 143.383C31.6823 142.608 32.5299 142.221 33.6328 142.221C34.7174 142.221 35.556 142.608 36.1484 143.383C36.75 144.148 37.0508 145.101 37.0508 146.24C37.0508 146.714 36.987 147.174 36.8594 147.621C36.7409 148.068 36.554 148.496 36.2988 148.906C36.0527 149.307 35.6973 149.631 35.2324 149.877C34.7676 150.123 34.2344 150.246 33.6328 150.246C33.0312 150.246 32.498 150.128 32.0332 149.891C31.5775 149.645 31.2174 149.321 30.9531 148.92C30.6979 148.519 30.5065 148.095 30.3789 147.648C30.2604 147.193 30.2012 146.723 30.2012 146.24ZM38.6367 150V142.467H39.8672V143.465C40.013 143.146 40.2546 142.859 40.5918 142.604C40.929 142.348 41.3483 142.221 41.8496 142.221C42.2324 142.221 42.5788 142.285 42.8887 142.412V143.574C42.5605 143.447 42.2142 143.383 41.8496 143.383C41.2389 143.383 40.765 143.615 40.4277 144.08C40.0996 144.545 39.9355 145.16 39.9355 145.926V150H38.6367ZM43.8867 150V142.467H45.1172V143.465C45.263 143.146 45.5046 142.859 45.8418 142.604C46.179 142.348 46.5983 142.221 47.0996 142.221C47.4824 142.221 47.8288 142.285 48.1387 142.412V143.574C47.8105 143.447 47.4642 143.383 47.0996 143.383C46.4889 143.383 46.015 143.615 45.6777 144.08C45.3496 144.545 45.1855 145.16 45.1855 145.926V150H43.8867ZM48.5898 142.467H50.0391L51.502 146.691C51.7663 147.457 51.9622 148.072 52.0898 148.537H52.1445C52.4089 147.662 52.5957 147.047 52.7051 146.691L54.0859 142.467H55.5215L52.3223 151.162C52.0488 151.919 51.7116 152.447 51.3105 152.748C50.9186 153.058 50.4355 153.213 49.8613 153.213H49.4102V152.146H49.6562C50.0299 152.146 50.3398 152.051 50.5859 151.859C50.832 151.668 51.0417 151.326 51.2148 150.834L51.4883 150L48.5898 142.467ZM56.2734 152.352L57.4629 148.209H59.1445L57.3262 152.352H56.2734ZM65.1191 140.977V139.418H66.6367V140.977H65.1191ZM65.2559 150V142.467H66.5137V150H65.2559ZM68.8242 150V142.467H70.082V143.506C70.2188 143.196 70.4648 142.904 70.8203 142.631C71.1758 142.357 71.6178 142.221 72.1465 142.221C73.0306 142.221 73.6595 142.74 74.0332 143.779C74.0879 143.652 74.1654 143.52 74.2656 143.383C74.3659 143.237 74.5072 143.068 74.6895 142.877C74.8717 142.686 75.1133 142.531 75.4141 142.412C75.724 142.285 76.0566 142.221 76.4121 142.221C77.8978 142.221 78.6406 143.191 78.6406 145.133V150H77.3555V145.215C77.3555 144.586 77.2689 144.112 77.0957 143.793C76.9225 143.465 76.599 143.301 76.125 143.301C75.6237 143.301 75.2044 143.515 74.8672 143.943C74.5299 144.363 74.3613 144.891 74.3613 145.529V150H73.1035V145.188C73.1035 143.93 72.6888 143.301 71.8594 143.301C71.3216 143.301 70.8978 143.501 70.5879 143.902C70.278 144.303 70.123 144.827 70.123 145.475V150H68.8242ZM81.4297 148.004C81.4297 148.332 81.5664 148.61 81.8398 148.838C82.1133 149.066 82.4824 149.18 82.9473 149.18C83.5671 149.18 84.0911 148.979 84.5195 148.578C84.957 148.177 85.1758 147.662 85.1758 147.033V146.104C84.8112 146.195 84.2188 146.304 83.3984 146.432C82.0859 146.65 81.4297 147.174 81.4297 148.004ZM80.1445 148.113C80.1445 146.701 81.2155 145.83 83.3574 145.502C84.2871 145.356 84.8932 145.238 85.1758 145.146V144.723C85.1758 144.285 85.0208 143.93 84.7109 143.656C84.4102 143.383 83.9818 143.246 83.4258 143.246C82.9883 143.246 82.5645 143.351 82.1543 143.561C81.7533 143.761 81.416 144.03 81.1426 144.367L80.3359 143.684C80.7096 143.237 81.1654 142.882 81.7031 142.617C82.2409 142.353 82.806 142.221 83.3984 142.221C85.431 142.221 86.4473 143.223 86.4473 145.229V150H85.2168V148.865C85.0618 149.239 84.7656 149.562 84.3281 149.836C83.8906 150.109 83.3757 150.246 82.7832 150.246C81.9538 150.246 81.3066 150.05 80.8418 149.658C80.377 149.257 80.1445 148.742 80.1445 148.113ZM89.2773 146.09C89.2773 146.938 89.4596 147.617 89.8242 148.127C90.1888 148.628 90.6628 148.879 91.2461 148.879C91.8294 148.879 92.2943 148.633 92.6406 148.141C92.9961 147.648 93.1738 146.96 93.1738 146.076C93.1738 145.21 92.9961 144.531 92.6406 144.039C92.2852 143.547 91.8249 143.301 91.2598 143.301C90.6582 143.301 90.1751 143.561 89.8105 144.08C89.4551 144.6 89.2773 145.27 89.2773 146.09ZM87.9785 146.104C87.9785 144.937 88.2702 143.998 88.8535 143.287C89.4368 142.576 90.1842 142.221 91.0957 142.221C91.6335 142.221 92.0755 142.362 92.4219 142.645C92.7773 142.918 93.028 143.228 93.1738 143.574V142.467H94.4453V149.057C94.4453 150.479 94.181 151.536 93.6523 152.229C93.1328 152.921 92.3125 153.268 91.1914 153.268C89.9609 153.268 89.0085 152.803 88.334 151.873L89.209 151.285C89.765 151.914 90.4349 152.229 91.2188 152.229C91.8203 152.229 92.2943 151.996 92.6406 151.531C92.987 151.066 93.1647 150.451 93.1738 149.686C93.1738 149.558 93.1738 149.38 93.1738 149.152C93.1829 148.924 93.1875 148.765 93.1875 148.674C93.0052 149.048 92.7363 149.357 92.3809 149.604C92.0254 149.84 91.6107 149.959 91.1367 149.959C90.1888 149.959 89.4232 149.604 88.8398 148.893C88.2656 148.173 87.9785 147.243 87.9785 146.104ZM96.0586 146.186C96.0586 145.001 96.3822 144.044 97.0293 143.314C97.6764 142.585 98.5059 142.221 99.5176 142.221C100.529 142.221 101.336 142.581 101.938 143.301C102.548 144.021 102.854 144.941 102.854 146.062C102.854 146.208 102.844 146.409 102.826 146.664H97.3574C97.3574 147.357 97.5534 147.954 97.9453 148.455C98.3464 148.947 98.8932 149.193 99.5859 149.193C100.516 149.193 101.195 148.792 101.623 147.99L102.703 148.332C102.466 148.888 102.079 149.348 101.541 149.713C101.012 150.068 100.356 150.246 99.5723 150.246C98.5241 150.246 97.6764 149.877 97.0293 149.139C96.3822 148.391 96.0586 147.407 96.0586 146.186ZM97.3848 145.721H101.555C101.555 145.037 101.372 144.458 101.008 143.984C100.643 143.51 100.146 143.273 99.5176 143.273C98.8796 143.273 98.3691 143.52 97.9863 144.012C97.6035 144.495 97.403 145.064 97.3848 145.721ZM22.0391 171V163.467H23.2969V164.643H23.3105C23.429 164.305 23.6888 163.986 24.0898 163.686C24.5 163.376 25.0013 163.221 25.5938 163.221C26.3138 163.221 26.8971 163.444 27.3438 163.891C27.7995 164.337 28.0273 165.085 28.0273 166.133V171H26.7285V166.338C26.7285 164.98 26.2546 164.301 25.3066 164.301C24.7689 164.301 24.304 164.524 23.9121 164.971C23.5293 165.408 23.3379 165.937 23.3379 166.557V171H22.0391ZM30.8438 167.24C30.8438 168.161 31.0488 168.881 31.459 169.4C31.8691 169.911 32.3704 170.166 32.9629 170.166C33.5462 170.166 34.043 169.911 34.4531 169.4C34.8633 168.881 35.0684 168.161 35.0684 167.24C35.0684 166.301 34.8633 165.577 34.4531 165.066C34.043 164.556 33.5462 164.301 32.9629 164.301C32.3796 164.301 31.8783 164.556 31.459 165.066C31.0488 165.568 30.8438 166.292 30.8438 167.24ZM29.5312 167.24C29.5312 166.101 29.8275 165.148 30.4199 164.383C31.0124 163.608 31.86 163.221 32.9629 163.221C34.0475 163.221 34.8861 163.608 35.4785 164.383C36.0801 165.148 36.3809 166.101 36.3809 167.24C36.3809 167.714 36.3171 168.174 36.1895 168.621C36.071 169.068 35.8841 169.496 35.6289 169.906C35.3828 170.307 35.0273 170.631 34.5625 170.877C34.0977 171.123 33.5645 171.246 32.9629 171.246C32.3613 171.246 31.8281 171.128 31.3633 170.891C30.9076 170.645 30.5475 170.321 30.2832 169.92C30.028 169.519 29.8366 169.095 29.709 168.648C29.5905 168.193 29.5312 167.723 29.5312 167.24ZM37.1875 164.547V163.467H38.459V161.115H39.7441V163.467H41.6309V164.547H39.7441V168.717C39.7441 169.145 39.8262 169.451 39.9902 169.633C40.1543 169.815 40.4141 169.906 40.7695 169.906H41.6445V171H40.6055C39.1745 171 38.459 170.275 38.459 168.826V164.547H37.1875ZM47.3047 169.004C47.3047 169.332 47.4414 169.61 47.7148 169.838C47.9883 170.066 48.3574 170.18 48.8223 170.18C49.4421 170.18 49.9661 169.979 50.3945 169.578C50.832 169.177 51.0508 168.662 51.0508 168.033V167.104C50.6862 167.195 50.0938 167.304 49.2734 167.432C47.9609 167.65 47.3047 168.174 47.3047 169.004ZM46.0195 169.113C46.0195 167.701 47.0905 166.83 49.2324 166.502C50.1621 166.356 50.7682 166.238 51.0508 166.146V165.723C51.0508 165.285 50.8958 164.93 50.5859 164.656C50.2852 164.383 49.8568 164.246 49.3008 164.246C48.8633 164.246 48.4395 164.351 48.0293 164.561C47.6283 164.761 47.291 165.03 47.0176 165.367L46.2109 164.684C46.5846 164.237 47.0404 163.882 47.5781 163.617C48.1159 163.353 48.681 163.221 49.2734 163.221C51.306 163.221 52.3223 164.223 52.3223 166.229V171H51.0918V169.865C50.9368 170.239 50.6406 170.562 50.2031 170.836C49.7656 171.109 49.2507 171.246 48.6582 171.246C47.8288 171.246 47.1816 171.05 46.7168 170.658C46.252 170.257 46.0195 169.742 46.0195 169.113ZM53.3887 163.467H54.8105L56.2598 167.883C56.3509 168.165 56.4694 168.562 56.6152 169.072C56.7611 169.583 56.8385 169.861 56.8477 169.906H56.875C56.9388 169.669 57.0436 169.309 57.1895 168.826C57.3444 168.343 57.4447 168.029 57.4902 167.883L58.9258 163.467H60.334L57.627 171H56.1094L53.3887 163.467ZM62.1113 169.004C62.1113 169.332 62.248 169.61 62.5215 169.838C62.7949 170.066 63.1641 170.18 63.6289 170.18C64.2487 170.18 64.7728 169.979 65.2012 169.578C65.6387 169.177 65.8574 168.662 65.8574 168.033V167.104C65.4928 167.195 64.9004 167.304 64.0801 167.432C62.7676 167.65 62.1113 168.174 62.1113 169.004ZM60.8262 169.113C60.8262 167.701 61.8971 166.83 64.0391 166.502C64.9688 166.356 65.5749 166.238 65.8574 166.146V165.723C65.8574 165.285 65.7025 164.93 65.3926 164.656C65.0918 164.383 64.6634 164.246 64.1074 164.246C63.6699 164.246 63.2461 164.351 62.8359 164.561C62.4349 164.761 62.0977 165.03 61.8242 165.367L61.0176 164.684C61.3913 164.237 61.847 163.882 62.3848 163.617C62.9225 163.353 63.4876 163.221 64.0801 163.221C66.1126 163.221 67.1289 164.223 67.1289 166.229V171H65.8984V169.865C65.7435 170.239 65.4473 170.562 65.0098 170.836C64.5723 171.109 64.0573 171.246 63.4648 171.246C62.6354 171.246 61.9883 171.05 61.5234 170.658C61.0586 170.257 60.8262 169.742 60.8262 169.113ZM69.2344 161.977V160.418H70.752V161.977H69.2344ZM69.3711 171V163.467H70.6289V171H69.3711ZM73.1035 171V160.199H74.375V171H73.1035ZM77.3965 169.004C77.3965 169.332 77.5332 169.61 77.8066 169.838C78.0801 170.066 78.4492 170.18 78.9141 170.18C79.5339 170.18 80.0579 169.979 80.4863 169.578C80.9238 169.177 81.1426 168.662 81.1426 168.033V167.104C80.778 167.195 80.1855 167.304 79.3652 167.432C78.0527 167.65 77.3965 168.174 77.3965 169.004ZM76.1113 169.113C76.1113 167.701 77.1823 166.83 79.3242 166.502C80.2539 166.356 80.86 166.238 81.1426 166.146V165.723C81.1426 165.285 80.9876 164.93 80.6777 164.656C80.377 164.383 79.9486 164.246 79.3926 164.246C78.9551 164.246 78.5312 164.351 78.1211 164.561C77.7201 164.761 77.3828 165.03 77.1094 165.367L76.3027 164.684C76.6764 164.237 77.1322 163.882 77.6699 163.617C78.2077 163.353 78.7728 163.221 79.3652 163.221C81.3978 163.221 82.4141 164.223 82.4141 166.229V171H81.1836V169.865C81.0286 170.239 80.7324 170.562 80.2949 170.836C79.8574 171.109 79.3424 171.246 78.75 171.246C77.9206 171.246 77.2734 171.05 76.8086 170.658C76.3438 170.257 76.1113 169.742 76.1113 169.113ZM84.4922 171V160.199H85.7637V164.643C85.9186 164.287 86.1875 163.964 86.5703 163.672C86.9622 163.371 87.418 163.221 87.9375 163.221C88.8672 163.221 89.6283 163.581 90.2207 164.301C90.8132 165.012 91.1094 165.987 91.1094 167.227C91.1094 167.919 91.0137 168.535 90.8223 169.072C90.6309 169.61 90.3757 170.034 90.0566 170.344C89.7376 170.645 89.4004 170.868 89.0449 171.014C88.6895 171.169 88.3203 171.246 87.9375 171.246C87.4362 171.246 86.9896 171.105 86.5977 170.822C86.2057 170.531 85.9232 170.184 85.75 169.783V171H84.4922ZM85.7363 167.227C85.7363 168.129 85.9277 168.844 86.3105 169.373C86.7025 169.902 87.1855 170.166 87.7598 170.166C88.3522 170.166 88.8398 169.911 89.2227 169.4C89.6055 168.881 89.7969 168.156 89.7969 167.227C89.7969 166.333 89.61 165.622 89.2363 165.094C88.8626 164.565 88.3704 164.301 87.7598 164.301C87.1855 164.301 86.7025 164.57 86.3105 165.107C85.9277 165.636 85.7363 166.342 85.7363 167.227ZM92.873 171V160.199H94.1445V171H92.873ZM95.8945 167.186C95.8945 166.001 96.2181 165.044 96.8652 164.314C97.5124 163.585 98.3418 163.221 99.3535 163.221C100.365 163.221 101.172 163.581 101.773 164.301C102.384 165.021 102.689 165.941 102.689 167.062C102.689 167.208 102.68 167.409 102.662 167.664H97.1934C97.1934 168.357 97.3893 168.954 97.7812 169.455C98.1823 169.947 98.7292 170.193 99.4219 170.193C100.352 170.193 101.031 169.792 101.459 168.99L102.539 169.332C102.302 169.888 101.915 170.348 101.377 170.713C100.848 171.068 100.192 171.246 99.4082 171.246C98.36 171.246 97.5124 170.877 96.8652 170.139C96.2181 169.391 95.8945 168.407 95.8945 167.186ZM97.2207 166.721H101.391C101.391 166.037 101.208 165.458 100.844 164.984C100.479 164.51 99.9824 164.273 99.3535 164.273C98.7155 164.273 98.2051 164.52 97.8223 165.012C97.4395 165.495 97.2389 166.064 97.2207 166.721Z" fill="white"/>
<g clip-path="url(#clip0_4233_8154)">
<path d="M21.2825 206.638C21.4362 206.628 21.567 206.605 21.6751 206.56C21.8495 206.482 21.97 206.383 22.0676 206.182C22.1673 205.948 22.1985 205.616 22.1985 205.105V201.184C22.1985 200.639 22.1673 200.318 22.0676 200.073C21.97 199.872 21.8371 199.773 21.6751 199.695C21.565 199.661 21.4445 199.64 21.2825 199.627V199.393H25.0525C26.3632 199.393 27.6303 199.748 27.6303 201.116C27.6303 201.927 27.1505 202.36 26.5169 202.582C26.276 202.704 26.0683 202.77 25.6861 202.827V202.882C27.0196 203.004 28.0125 203.536 28.0125 204.759C28.0125 206.115 26.8659 206.869 25.4783 206.869H21.2825V206.634V206.638ZM24.768 202.738C25.2374 202.738 25.5656 202.592 25.7401 202.339C25.981 202.005 26.035 201.46 26.035 201.072C26.035 199.995 25.5323 199.684 24.7576 199.684H24.2237C24.07 199.684 23.9828 199.729 23.9392 199.807C23.8852 199.874 23.8748 199.974 23.8748 200.117V202.738H24.77H24.768ZM24.9964 206.581C25.4347 206.581 25.7608 206.448 25.981 206.182C26.2116 205.838 26.2864 205.437 26.2864 204.727C26.2864 204.161 26.1867 203.671 25.8605 203.361C25.63 203.139 25.2374 203.05 24.7347 203.05H23.8727V205.483C23.8727 205.895 23.8935 206.195 24.0472 206.372C24.1469 206.495 24.3858 206.584 24.6807 206.584H24.9964V206.581Z" fill="white"/>
<path d="M37.6319 203.139C37.6319 205.439 36.0242 207.016 33.9699 207.016C31.9156 207.016 30.3203 205.439 30.3203 203.139C30.3203 200.839 31.9177 199.251 33.972 199.251C36.0263 199.251 37.634 200.829 37.634 203.139H37.6319ZM35.0313 206.305C35.4779 205.906 35.829 205.061 35.829 203.139C35.829 201.217 35.4904 200.396 35.0313 199.963C34.7468 199.707 34.4186 199.574 33.9699 199.574C33.5212 199.574 33.1951 199.697 32.9002 199.976C32.4515 200.398 32.1025 201.22 32.1025 203.141C32.1025 205.063 32.4515 205.874 32.9105 206.307C33.2055 206.584 33.5233 206.708 33.9699 206.708C34.4165 206.708 34.7447 206.575 35.0313 206.307V206.305Z" fill="white"/>
<path d="M47.3281 203.139C47.3281 205.439 45.7204 207.016 43.6681 207.016C41.6159 207.016 40.0186 205.439 40.0186 203.139C40.0186 200.839 41.6138 199.251 43.6681 199.251C45.7224 199.251 47.3281 200.829 47.3281 203.139ZM44.7275 206.305C45.1741 205.906 45.5251 205.061 45.5251 203.139C45.5251 201.217 45.1865 200.396 44.7275 199.963C44.4429 199.707 44.1147 199.574 43.6681 199.574C43.2215 199.574 42.8934 199.697 42.5963 199.976C42.1476 200.398 41.7987 201.22 41.7987 203.141C41.7987 205.063 42.1476 205.874 42.6067 206.307C42.9017 206.584 43.2195 206.708 43.6681 206.708C44.1168 206.708 44.4429 206.575 44.7275 206.307V206.305Z" fill="white"/>
<path d="M53.1462 206.871H49.6274V206.636C49.7915 206.626 49.912 206.603 50.0096 206.558C50.207 206.48 50.3254 206.381 50.4147 206.193C50.5123 205.948 50.5455 205.627 50.5455 205.082V201.15C50.5455 200.628 50.5123 200.295 50.4147 200.062C50.315 199.885 50.1966 199.786 50.02 199.697C49.9328 199.663 49.8019 199.642 49.6274 199.629V199.395H53.1462V199.629C52.9924 199.64 52.8408 199.65 52.7411 199.707C52.577 199.786 52.4358 199.874 52.3485 200.062C52.2509 200.307 52.2177 200.607 52.2177 201.15V203.126L54.1079 201.082C54.5233 200.626 54.7518 200.349 54.7518 200.071C54.7518 199.826 54.6313 199.748 54.4568 199.682C54.3364 199.648 54.2055 199.638 54.0643 199.627V199.393H56.6524V199.627C56.4218 199.648 56.1061 199.76 55.834 199.927C55.539 200.117 55.2005 200.383 54.7186 200.905L53.2978 202.415V202.47C54.0518 202.491 54.6625 202.647 55.0779 203.08C55.4809 203.469 55.7779 204.024 55.9192 204.968C56.0625 205.967 56.2681 206.222 56.4987 206.4C56.6628 206.533 56.9578 206.622 57.1218 206.634V206.869H54.7518C54.5212 206.647 54.272 206.037 54.1847 205.169C54.1183 204.368 54.0643 203.857 53.8898 203.526C53.6821 203.148 53.4972 202.981 53.115 202.981C52.874 202.981 52.6456 203.114 52.4815 203.291L52.2197 203.591V205.101C52.2197 205.602 52.2426 205.956 52.3506 206.178C52.4503 206.368 52.5687 206.478 52.7557 206.556C52.8761 206.6 53.007 206.624 53.1482 206.634V206.869L53.1462 206.871Z" fill="white"/>
<path d="M61.7832 207.014C60.9087 207.014 60.2544 206.636 59.8722 206.271H59.8058L59.4568 206.837H59.2823L59.1826 204.227H59.4132C59.7954 205.437 60.6595 206.714 61.7832 206.714C62.6889 206.714 63.1479 206.203 63.1479 205.526C63.1479 204.603 62.558 204.36 61.4862 203.87C60.3396 203.359 59.3135 202.77 59.3135 201.403C59.3135 200.037 60.3624 199.237 61.6835 199.237C62.5144 199.237 62.8966 199.482 63.2559 199.803H63.3224L63.6381 199.38H63.8562L64.0099 201.602H63.769C63.582 201.07 63.366 200.668 63.0482 200.28C62.7325 199.857 62.3482 199.558 61.7271 199.558C61.1061 199.558 60.6013 199.891 60.6013 200.569C60.6013 201.503 61.3449 201.779 62.1966 202.18C63.5301 202.801 64.4794 203.247 64.4794 204.634C64.4794 206.168 63.2331 207.012 61.7791 207.012L61.7832 207.014Z" fill="white"/>
<path d="M21.1787 216.904C21.2805 216.898 21.3677 216.883 21.4404 216.851C21.5568 216.8 21.6378 216.733 21.7022 216.6C21.7665 216.443 21.7894 216.222 21.7894 215.882V213.267C21.7894 212.904 21.7665 212.691 21.7022 212.526C21.6357 212.393 21.5484 212.325 21.4404 212.275C21.3677 212.254 21.2867 212.237 21.1787 212.23V212.076H23.6921C24.5666 212.076 25.412 212.313 25.412 213.225C25.412 213.766 25.0921 214.055 24.6683 214.203C24.5084 214.285 24.3692 214.33 24.1158 214.365V214.403C25.0048 214.486 25.6675 214.841 25.6675 215.656C25.6675 216.56 24.9031 217.062 23.9767 217.062H21.1787V216.906V216.904ZM23.5031 214.304C23.8167 214.304 24.0348 214.207 24.1511 214.038C24.3111 213.816 24.3485 213.453 24.3485 213.193C24.3485 212.475 24.014 212.268 23.4968 212.268H23.1396C23.0378 212.268 22.9796 212.298 22.9505 212.351C22.9131 212.395 22.9069 212.463 22.9069 212.558V214.306H23.5031V214.304ZM23.6568 216.866C23.9476 216.866 24.1657 216.777 24.3132 216.6C24.4669 216.37 24.5167 216.103 24.5167 215.63C24.5167 215.252 24.4502 214.927 24.2321 214.718C24.0784 214.57 23.8167 214.511 23.4823 214.511H22.9069V216.133C22.9069 216.408 22.9215 216.606 23.0232 216.726C23.0876 216.809 23.2496 216.868 23.4449 216.868H23.6568V216.866Z" fill="white"/>
<path d="M27.7094 212.919C27.4477 212.423 27.294 212.281 26.9824 212.23V212.076H29.3504V212.23C29.2112 212.239 29.0949 212.254 29.0222 212.283C28.7688 212.387 28.7896 212.623 28.9848 213.001L29.7721 214.526H29.8094L30.4949 213.193C30.6694 212.868 30.713 212.735 30.713 212.549C30.713 212.364 30.6403 212.313 30.524 212.268C30.4284 212.239 30.3267 212.23 30.2623 212.23V212.076H31.6976V212.23C31.2759 212.298 31.0931 212.541 30.7504 213.202L29.8905 214.839V215.943C29.8905 216.283 29.905 216.463 29.9777 216.617C30.0359 216.735 30.1231 216.803 30.2394 216.853C30.3267 216.883 30.4077 216.898 30.5178 216.906V217.062H28.1643V216.906C28.2744 216.9 28.3534 216.885 28.4344 216.847C28.5444 216.796 28.6317 216.743 28.6961 216.61C28.7688 216.463 28.7833 216.277 28.7833 215.943V214.877L27.7115 212.921L27.7094 212.919Z" fill="white"/>
<path d="M39.0921 216.608C39.1503 216.735 39.2458 216.8 39.3538 216.853C39.4411 216.883 39.5075 216.891 39.6156 216.906V217.062H37.2704V216.906C37.3805 216.9 37.4532 216.885 37.5259 216.853C37.6506 216.794 37.7295 216.726 37.796 216.602C37.8687 216.446 37.8832 216.224 37.8832 215.884V212.277H37.6568C37.366 212.277 37.1541 212.374 36.8841 212.632C36.5497 212.965 36.3606 213.335 36.2007 213.639H36.0615L36.236 212.076H40.6583L40.8265 213.639H40.6874C40.5274 213.335 40.3301 212.957 39.9957 212.617C39.7339 212.366 39.5221 212.277 39.225 212.277H38.9986V215.875C38.9986 216.23 39.0132 216.452 39.0921 216.608Z" fill="white"/>
<path d="M46.6345 217.06H42.5757V216.904C42.6858 216.898 42.7585 216.883 42.8312 216.851C42.962 216.792 43.043 216.724 43.1012 216.606C43.1739 216.45 43.1884 216.237 43.1884 215.873V213.244C43.1884 212.896 43.1739 212.68 43.1074 212.518C43.0347 212.391 42.9537 212.332 42.8374 212.273C42.7564 212.235 42.6837 212.228 42.5757 212.22V212.072H46.4724L46.6532 213.517H46.5078C46.3187 213.168 46.0716 212.799 45.8161 212.568C45.6561 212.406 45.4152 212.273 45.0434 212.273H44.7006C44.5988 212.273 44.4888 212.288 44.4244 212.361C44.3143 212.465 44.2935 212.666 44.2935 212.835V214.368H44.6778C44.9623 214.368 45.1306 214.315 45.276 214.167C45.4588 213.99 45.5294 213.745 45.5813 213.515H45.7267V215.432H45.5813C45.5232 215.181 45.465 214.965 45.2677 214.758C45.1285 214.617 44.9623 214.573 44.6778 214.573H44.2935V216.061C44.2935 216.342 44.2997 216.579 44.4306 216.714C44.5116 216.811 44.6715 216.862 44.8751 216.862H45.1306C45.5398 216.862 45.706 216.729 45.9386 216.477C46.2585 216.167 46.4704 215.751 46.6594 215.396H46.7903L46.6303 217.056L46.6345 217.06Z" fill="white"/>
<path d="M48.7344 216.904C48.8362 216.898 48.9317 216.874 48.9961 216.851C49.1207 216.8 49.2142 216.733 49.2661 216.591C49.3388 216.437 49.3534 216.258 49.3534 215.926V213.208C49.3534 212.86 49.3326 212.682 49.2599 212.526C49.2017 212.385 49.1145 212.319 48.9899 212.275C48.9172 212.245 48.8362 212.237 48.7344 212.23V212.076H51.065V212.23C50.9632 212.239 50.8842 212.254 50.8115 212.275C50.6952 212.325 50.6059 212.385 50.5498 212.526C50.4771 212.68 50.4563 212.866 50.4563 213.208V216.038C50.4563 216.416 50.4854 216.564 50.5727 216.691C50.6744 216.824 50.8198 216.868 51.0026 216.868H51.2561C51.6279 216.868 51.7961 216.735 51.9851 216.528C52.3196 216.158 52.5813 215.654 52.7495 215.32H52.9012L52.7205 217.06H48.7365V216.904H48.7344Z" fill="white"/>
<path d="M58.7048 217.06H54.646V216.904C54.7561 216.898 54.8288 216.883 54.9015 216.851C55.0324 216.792 55.1134 216.724 55.1715 216.606C55.2442 216.45 55.2588 216.237 55.2588 215.873V213.244C55.2588 212.896 55.2442 212.68 55.1777 212.518C55.105 212.391 55.024 212.332 54.9077 212.273C54.8267 212.235 54.754 212.228 54.646 212.22V212.072H58.5428L58.7235 213.517H58.5781C58.389 213.168 58.1419 212.799 57.8864 212.568C57.7264 212.406 57.4855 212.273 57.1137 212.273H56.7709C56.6692 212.273 56.5591 212.288 56.4947 212.361C56.3846 212.465 56.3638 212.666 56.3638 212.835V214.368H56.7481C57.0327 214.368 57.2009 214.315 57.3463 214.167C57.5291 213.99 57.5997 213.745 57.6517 213.515H57.7971V215.432H57.6517C57.5935 215.181 57.5353 214.965 57.338 214.758C57.1988 214.617 57.0327 214.573 56.7481 214.573H56.3638V216.061C56.3638 216.342 56.37 216.579 56.5009 216.714C56.5819 216.811 56.7419 216.862 56.9454 216.862H57.2009C57.6101 216.862 57.7763 216.729 58.0089 216.477C58.3288 216.167 58.5407 215.751 58.7297 215.396H58.8606L58.7006 217.056L58.7048 217.06Z" fill="white"/>
<path d="M64.0681 215.096C63.9954 214.969 63.931 214.919 63.7981 214.866C63.7337 214.836 63.6381 214.822 63.5509 214.813V214.659H65.7859V214.813C65.6841 214.822 65.5886 214.834 65.5242 214.858C65.3996 214.917 65.3269 214.976 65.2542 215.103C65.196 215.236 65.1815 215.457 65.1815 215.806V216.76C65.0423 216.826 64.8616 216.902 64.5105 216.997C64.2405 217.056 63.6942 217.153 63.3307 217.153C61.8165 217.153 60.8547 216.11 60.8547 214.562C60.8547 213.014 62.0117 211.969 63.3099 211.969C64.1097 211.969 64.5272 212.294 64.6933 212.488H64.737L64.9488 212.133H65.0735V213.8H64.9197C64.7951 213.356 64.6663 212.993 64.4607 212.718C64.1907 212.355 63.9372 212.186 63.3826 212.186C63.0918 212.186 62.8737 212.275 62.6619 212.475C62.3628 212.75 62.0574 213.43 62.0574 214.564C62.0574 215.785 62.2838 216.422 62.6556 216.703C62.8675 216.881 63.0565 216.94 63.3328 216.94C63.7254 216.94 63.9082 216.874 64.0245 216.762C64.1055 216.68 64.1637 216.511 64.1637 216.095V215.599C64.1637 215.354 64.1346 215.236 64.0681 215.096Z" fill="white"/>
<path d="M69.8632 217.06H67.5035V216.904C67.6053 216.904 67.7009 216.883 67.7653 216.851C67.8899 216.807 67.9834 216.733 68.0415 216.606C68.1142 216.444 68.1288 216.222 68.1288 215.888V213.259C68.1288 212.904 68.1142 212.674 68.0478 212.503C67.9813 212.376 67.8941 212.311 67.7632 212.258C67.6905 212.237 67.6012 212.22 67.5015 212.22V212.072H70.0211C71.1573 212.072 71.7908 212.471 71.7908 213.31C71.7908 213.814 71.5145 214.11 71.1427 214.302C70.9745 214.397 70.7418 214.488 70.4573 214.532V214.562C70.7128 214.598 70.9828 214.659 71.178 214.769C71.4543 214.925 71.6371 215.206 71.7389 215.702C71.8635 216.346 71.9715 216.598 72.1169 216.739C72.2104 216.828 72.3641 216.887 72.5241 216.902V217.058H70.9662C70.8125 216.857 70.6961 216.517 70.638 216.015C70.5653 215.459 70.5507 215.134 70.3472 214.866C70.2018 214.68 69.9754 214.636 69.67 214.636H69.2317V215.888C69.2317 216.237 69.2463 216.437 69.3128 216.606C69.3771 216.724 69.4727 216.798 69.5973 216.851C69.67 216.889 69.7573 216.904 69.859 216.904V217.06H69.8632ZM69.4914 212.275C69.4041 212.275 69.3377 212.296 69.3024 212.34C69.2587 212.385 69.2359 212.452 69.2359 212.592V214.435H69.7012C70.1748 214.435 70.3493 214.353 70.4884 214.14C70.6255 213.933 70.6691 213.614 70.6691 213.289C70.6691 212.533 70.4074 212.275 69.8528 212.275H69.4893H69.4914Z" fill="white"/>
<path d="M75.4549 217.06H73.9614V216.904C74.0777 216.889 74.1733 216.866 74.2668 216.807C74.3478 216.756 74.4267 216.674 74.514 216.541C74.595 216.393 74.6884 216.177 74.7902 215.897L76.2318 212.038H76.5807L77.8914 215.69C78.0451 216.112 78.1324 216.311 78.2404 216.49C78.3484 216.67 78.4523 216.756 78.5686 216.824C78.6787 216.876 78.7368 216.889 78.8241 216.906V217.062H76.3626V216.906C76.4873 216.891 76.5745 216.868 76.6472 216.841C76.7407 216.803 76.8881 216.699 76.8881 216.507C76.8881 216.315 76.83 216.152 76.749 215.907L76.6119 215.508H75.1994L75.0312 215.981C74.9502 216.196 74.9211 216.321 74.9211 216.471C74.9211 216.657 75.0083 216.79 75.1392 216.841C75.2119 216.879 75.3427 216.9 75.4528 216.906V217.062L75.4549 217.06ZM75.2804 215.282H76.533L75.943 213.563H75.8994L75.2804 215.282Z" fill="white"/>
<path d="M82.8352 217.06H80.4818V216.904C80.5836 216.898 80.6563 216.883 80.7435 216.851C80.8599 216.8 80.9409 216.741 80.999 216.606C81.08 216.444 81.0925 216.258 81.0925 215.918V213.208C81.0925 212.86 81.0634 212.682 80.999 212.52C80.9409 212.402 80.8536 212.328 80.7373 212.275C80.6708 212.254 80.5836 212.237 80.4756 212.23V212.076H82.9079C84.0442 212.076 84.7649 212.49 84.7649 213.364C84.7649 213.935 84.4887 214.289 84.1459 214.505C83.8551 214.691 83.4397 214.839 82.6441 214.839C82.4759 214.839 82.2723 214.817 82.1996 214.809V215.92C82.1996 216.268 82.2204 216.446 82.2869 216.602C82.3533 216.735 82.4323 216.803 82.5569 216.853C82.6379 216.891 82.7252 216.898 82.8332 216.906V217.062L82.8352 217.06ZM82.2017 214.594C82.2827 214.608 82.5154 214.632 82.6379 214.632C83.126 214.632 83.3525 214.469 83.4896 214.239C83.6204 214.032 83.6433 213.662 83.6433 213.394C83.6433 212.594 83.3442 212.268 82.7688 212.268H82.4925C82.3679 212.268 82.318 212.292 82.2661 212.342C82.2163 212.41 82.2017 212.475 82.2017 212.623V214.594Z" fill="white"/>
<path d="M88.805 217.06H86.5181V216.904C86.6282 216.898 86.7071 216.883 86.7736 216.851C86.9044 216.8 86.9854 216.733 87.0436 216.6C87.1163 216.437 87.1308 216.237 87.1308 215.882V213.261C87.1308 212.898 87.1246 212.682 87.0436 212.52C86.9854 212.393 86.8982 212.328 86.7736 212.283C86.6925 212.254 86.6198 212.239 86.5181 212.23V212.076H88.805V212.23C88.724 212.239 88.6679 212.245 88.6077 212.268C88.4768 212.321 88.3813 212.387 88.3231 212.52C88.2566 212.676 88.2421 212.889 88.2421 213.246V214.416H90.1136V213.246C90.1136 212.891 90.0991 212.691 90.0326 212.52C89.9745 212.387 89.8498 212.319 89.7564 212.275C89.7044 212.254 89.64 212.237 89.559 212.23V212.076H91.846V212.23C91.7442 212.239 91.6632 212.245 91.576 212.283C91.4596 212.328 91.3869 212.387 91.3205 212.52C91.2478 212.682 91.227 212.913 91.227 213.267V215.882C91.227 216.215 91.2415 216.46 91.3142 216.608C91.3807 216.726 91.4596 216.794 91.576 216.853C91.6632 216.883 91.7442 216.898 91.846 216.906V217.062H89.559V216.906C89.64 216.9 89.6961 216.885 89.7709 216.853C89.8872 216.803 89.9828 216.743 90.0326 216.602C90.097 216.431 90.1136 216.232 90.1136 215.884V214.632H88.2421V215.884C88.2421 216.247 88.2566 216.439 88.3231 216.602C88.3875 216.735 88.4768 216.809 88.5932 216.853C88.6659 216.891 88.724 216.898 88.805 216.906V217.062V217.06Z" fill="white"/>
<path d="M102.512 212.231C102.41 212.239 102.309 212.254 102.242 212.275C102.126 212.326 102.039 212.402 101.972 212.526C101.906 212.689 101.891 212.881 101.891 213.253V215.89C101.891 216.245 101.897 216.467 101.972 216.617C102.022 216.75 102.118 216.809 102.257 216.862C102.309 216.883 102.41 216.9 102.512 216.906V217.062H100.153V216.906C100.254 216.9 100.356 216.885 100.423 216.862C100.547 216.809 100.641 216.743 100.699 216.61C100.772 216.439 100.786 216.241 100.786 215.884V212.87H100.734L99.3217 217.092H98.9436L97.4647 212.923H97.4065V215.916C97.4065 216.3 97.4584 216.486 97.5311 216.619C97.6184 216.752 97.6994 216.819 97.8282 216.855C97.9092 216.879 97.9736 216.893 98.0837 216.908V217.064H96.4822V216.908C96.5694 216.902 96.6504 216.887 96.7148 216.864C96.8602 216.819 96.9392 216.76 97.0202 216.627C97.1074 216.486 97.1718 216.302 97.1718 215.916V213.339C97.1718 212.925 97.151 212.746 97.0638 212.554C96.9973 212.397 96.8955 212.332 96.773 212.279C96.692 212.25 96.584 212.241 96.4884 212.235V212.081H98.3828L99.5398 215.443H99.5834L100.749 212.081H102.51V212.235L102.512 212.231Z" fill="white"/>
<path d="M108.424 217.06H104.365V216.904C104.475 216.898 104.548 216.883 104.62 216.851C104.751 216.792 104.832 216.724 104.891 216.606C104.963 216.45 104.978 216.237 104.978 215.873V213.244C104.978 212.896 104.963 212.68 104.897 212.518C104.824 212.391 104.743 212.332 104.627 212.273C104.546 212.235 104.473 212.228 104.365 212.22V212.072H108.262L108.442 213.517H108.297C108.108 213.168 107.861 212.799 107.605 212.568C107.445 212.406 107.204 212.273 106.833 212.273H106.49C106.388 212.273 106.278 212.288 106.214 212.361C106.104 212.465 106.083 212.666 106.083 212.835V214.368H106.467C106.752 214.368 106.92 214.315 107.065 214.167C107.248 213.99 107.319 213.745 107.371 213.515H107.516V215.432H107.371C107.312 215.181 107.254 214.965 107.057 214.758C106.918 214.617 106.752 214.573 106.467 214.573H106.083V216.061C106.083 216.342 106.089 216.579 106.22 216.714C106.301 216.811 106.461 216.862 106.664 216.862H106.92C107.329 216.862 107.495 216.729 107.728 216.477C108.048 216.167 108.26 215.751 108.449 215.396H108.58L108.42 217.056L108.424 217.06Z" fill="white"/>
<path d="M112.944 212.076C113.525 212.076 113.978 212.186 114.312 212.38C114.99 212.765 115.478 213.512 115.478 214.558C115.478 215.603 115.019 216.357 114.342 216.758C114.036 216.929 113.621 217.062 113.176 217.062H110.524V216.906C110.625 216.9 110.713 216.885 110.779 216.853C110.916 216.794 110.991 216.726 111.055 216.608C111.122 216.437 111.136 216.239 111.136 215.89V213.246C111.136 212.898 111.114 212.676 111.055 212.513C110.997 212.387 110.91 212.321 110.785 212.268C110.713 212.239 110.632 212.23 110.524 212.224V212.076H112.944ZM113.76 212.646C113.527 212.357 113.199 212.277 112.836 212.277H112.58C112.443 212.277 112.368 212.306 112.318 212.351C112.26 212.41 112.26 212.507 112.26 212.632V216.112C112.26 216.431 112.266 216.608 112.362 216.726C112.435 216.824 112.574 216.868 112.771 216.868H112.954C113.282 216.868 113.573 216.758 113.797 216.484C114.082 216.114 114.294 215.544 114.294 214.566C114.294 213.671 114.082 213.012 113.762 212.649L113.76 212.646Z" fill="white"/>
<path d="M119.102 215.882C119.102 216.237 119.117 216.475 119.183 216.608C119.256 216.741 119.337 216.809 119.454 216.853C119.535 216.883 119.613 216.898 119.724 216.906V217.062H117.378V216.906C117.48 216.9 117.561 216.877 117.64 216.853C117.756 216.803 117.844 216.735 117.902 216.602C117.975 216.439 117.989 216.239 117.989 215.884V213.255C117.989 212.892 117.966 212.678 117.902 212.522C117.844 212.389 117.771 212.321 117.64 212.285C117.574 212.264 117.48 212.241 117.378 212.233V212.078H119.724V212.233C119.613 212.241 119.535 212.256 119.454 212.285C119.337 212.33 119.248 212.383 119.183 212.522C119.117 212.685 119.102 212.892 119.102 213.255V215.884V215.882Z" fill="white"/>
<path d="M122.827 217.06H121.333V216.904C121.45 216.889 121.545 216.866 121.639 216.807C121.72 216.756 121.799 216.674 121.886 216.541C121.967 216.393 122.06 216.177 122.162 215.897L123.604 212.038H123.953L125.263 215.69C125.417 216.112 125.504 216.311 125.612 216.49C125.72 216.67 125.824 216.756 125.94 216.824C126.05 216.876 126.109 216.889 126.196 216.906V217.062H123.734V216.906C123.859 216.891 123.946 216.868 124.019 216.841C124.112 216.803 124.26 216.699 124.26 216.507C124.26 216.315 124.202 216.152 124.123 215.907L123.984 215.508H122.571L122.403 215.981C122.322 216.196 122.293 216.321 122.293 216.471C122.293 216.657 122.38 216.79 122.511 216.841C122.584 216.879 122.715 216.9 122.825 216.906V217.062L122.827 217.06ZM122.652 215.282H123.905L123.315 213.563H123.271L122.652 215.282Z" fill="white"/>
<path d="M133.902 215.096C133.83 214.969 133.765 214.919 133.632 214.866C133.568 214.836 133.472 214.822 133.385 214.813V214.659H135.62V214.813C135.518 214.822 135.423 214.834 135.358 214.858C135.234 214.917 135.161 214.976 135.088 215.103C135.03 215.236 135.016 215.457 135.016 215.806V216.76C134.877 216.826 134.696 216.902 134.345 216.997C134.075 217.056 133.528 217.153 133.165 217.153C131.651 217.153 130.689 216.11 130.689 214.562C130.689 213.014 131.846 211.969 133.144 211.969C133.944 211.969 134.361 212.294 134.528 212.488H134.571L134.783 212.133H134.908V213.8H134.754C134.629 213.356 134.501 212.993 134.295 212.718C134.025 212.355 133.771 212.186 133.217 212.186C132.926 212.186 132.708 212.275 132.496 212.475C132.197 212.75 131.892 213.43 131.892 214.564C131.892 215.785 132.118 216.422 132.49 216.703C132.702 216.881 132.891 216.94 133.167 216.94C133.56 216.94 133.742 216.874 133.859 216.762C133.94 216.68 133.998 216.511 133.998 216.095V215.599C133.998 215.354 133.969 215.236 133.902 215.096Z" fill="white"/>
<path d="M139.698 217.06H137.338V216.904C137.44 216.904 137.535 216.883 137.6 216.851C137.724 216.807 137.818 216.733 137.876 216.606C137.949 216.444 137.963 216.222 137.963 215.888V213.259C137.963 212.904 137.949 212.674 137.882 212.503C137.816 212.376 137.729 212.311 137.598 212.258C137.525 212.237 137.436 212.22 137.336 212.22V212.072H139.856C140.992 212.072 141.625 212.471 141.625 213.31C141.625 213.814 141.349 214.11 140.977 214.302C140.809 214.397 140.576 214.488 140.292 214.532V214.562C140.547 214.598 140.817 214.659 141.013 214.769C141.289 214.925 141.472 215.206 141.573 215.702C141.698 216.346 141.806 216.598 141.951 216.739C142.045 216.828 142.199 216.887 142.359 216.902V217.058H140.801C140.647 216.857 140.531 216.517 140.472 216.015C140.4 215.459 140.385 215.134 140.182 214.866C140.036 214.68 139.81 214.636 139.504 214.636H139.066V215.888C139.066 216.237 139.081 216.437 139.147 216.606C139.212 216.724 139.307 216.798 139.432 216.851C139.504 216.889 139.592 216.904 139.694 216.904V217.06H139.698ZM139.326 212.275C139.239 212.275 139.172 212.296 139.137 212.34C139.093 212.385 139.07 212.452 139.07 212.592V214.435H139.536C140.009 214.435 140.184 214.353 140.323 214.14C140.46 213.933 140.504 213.614 140.504 213.289C140.504 212.533 140.242 212.275 139.687 212.275H139.324H139.326Z" fill="white"/>
<path d="M148.858 214.57C148.858 216.103 147.786 217.155 146.417 217.155C145.048 217.155 143.985 216.103 143.985 214.57C143.985 213.037 145.048 211.979 146.417 211.979C147.786 211.979 148.858 213.031 148.858 214.57ZM147.123 216.682C147.423 216.416 147.655 215.852 147.655 214.572C147.655 213.293 147.429 212.744 147.123 212.454C146.934 212.283 146.716 212.195 146.417 212.195C146.118 212.195 145.9 212.277 145.703 212.461C145.404 212.741 145.171 213.291 145.171 214.57C145.171 215.85 145.404 216.393 145.711 216.68C145.908 216.866 146.118 216.946 146.417 216.946C146.716 216.946 146.934 216.857 147.123 216.68V216.682Z" fill="white"/>
<path d="M154.805 216.52C154.578 216.889 154.055 217.157 153.247 217.157C152.439 217.157 151.776 216.942 151.469 216.336C151.332 216.055 151.271 215.609 151.271 215.21V213.248C151.271 212.856 151.257 212.663 151.19 212.516C151.132 212.383 151.053 212.33 150.937 212.279C150.871 212.258 150.769 212.241 150.667 212.235V212.081H153.006V212.235C152.896 212.243 152.817 212.258 152.75 212.288C152.626 212.34 152.539 212.399 152.474 212.524C152.408 212.657 152.387 212.887 152.387 213.242V215.508C152.387 215.804 152.424 216.049 152.497 216.264C152.642 216.716 153.014 216.879 153.531 216.879C154.086 216.879 154.427 216.708 154.624 216.374C154.74 216.173 154.792 215.848 154.792 215.39V213.227C154.792 212.835 154.74 212.642 154.653 212.509C154.566 212.368 154.479 212.323 154.348 212.279C154.26 212.25 154.179 212.235 154.078 212.226V212.078H155.702V212.226C155.6 212.233 155.542 212.247 155.469 212.271C155.324 212.315 155.251 212.383 155.164 212.522C155.077 212.663 155.033 212.832 155.033 213.225V215.379C155.033 215.861 154.996 216.216 154.807 216.52H154.805Z" fill="white"/>
<path d="M159.798 217.06H157.445V216.904C157.547 216.898 157.619 216.883 157.707 216.851C157.823 216.8 157.904 216.741 157.962 216.606C158.043 216.444 158.056 216.258 158.056 215.918V213.208C158.056 212.86 158.027 212.682 157.962 212.52C157.904 212.402 157.817 212.328 157.7 212.275C157.634 212.254 157.547 212.237 157.439 212.23V212.076H159.871C161.007 212.076 161.728 212.49 161.728 213.364C161.728 213.935 161.452 214.289 161.109 214.505C160.818 214.691 160.403 214.839 159.607 214.839C159.439 214.839 159.235 214.817 159.163 214.809V215.92C159.163 216.268 159.184 216.446 159.25 216.602C159.316 216.735 159.395 216.803 159.52 216.853C159.601 216.891 159.688 216.898 159.796 216.906V217.062L159.798 217.06ZM159.165 214.594C159.246 214.608 159.479 214.632 159.601 214.632C160.089 214.632 160.316 214.469 160.453 214.239C160.584 214.032 160.606 213.662 160.606 213.394C160.606 212.594 160.307 212.268 159.732 212.268H159.456C159.331 212.268 159.281 212.292 159.229 212.342C159.179 212.41 159.165 212.475 159.165 212.623V214.594Z" fill="white"/>
</g>
<line x1="21" y1="187.5" x2="162" y2="187.5" stroke="white"/>
</g>
<defs>
<filter id="filter0_d_4233_8154" x="0" y="0" width="190" height="252" filterUnits="userSpaceOnUse" color-interpolation-filters="sRGB">
<feFlood flood-opacity="0" result="BackgroundImageFix"/>
<feColorMatrix in="SourceAlpha" type="matrix" values="0 0 0 0 0 0 0 0 0 0 0 0 0 0 0 0 0 0 127 0" result="hardAlpha"/>
<feOffset dy="4"/>
<feGaussianBlur stdDeviation="2"/>
<feComposite in2="hardAlpha" operator="out"/>
<feColorMatrix type="matrix" values="0 0 0 0 0 0 0 0 0 0 0 0 0 0 0 0 0 0 0.25 0"/>
<feBlend mode="normal" in2="BackgroundImageFix" result="effect1_dropShadow_4233_8154"/>
<feBlend mode="normal" in="SourceGraphic" in2="effect1_dropShadow_4233_8154" result="shape"/>
</filter>
<linearGradient id="paint0_linear_4233_8154" x1="95" y1="30" x2="95" y2="244" gradientUnits="userSpaceOnUse">
<stop offset="0.120192" stop-color="#393939"/>
<stop offset="1" stop-color="#808080"/>
</linearGradient>
<clipPath id="clip0_4233_8154">
<rect width="141" height="34" fill="white" transform="translate(21 199)"/>
</clipPath>
</defs>
</svg>
