<?xml version="1.0" encoding="UTF-8"?><svg id="Layer_1" xmlns="http://www.w3.org/2000/svg" viewBox="0 0 50 38.87"><defs><style>.cls-1{fill:#c2e3f7;}.cls-1,.cls-2,.cls-3{stroke-width:0px;}.cls-2{fill:#003087;}.cls-3{fill:#fff;}</style></defs><g id="_155_Open_Book_Page_Layout_Cover"><path class="cls-1" d="M49,4.11v27.19c0,1.64-1.37,3.01-3.01,3.01l-18.07,3.56c-1.64,0-3.01-1.37-3.01-3.01V7.66c0-1.64,1.37-3.01,3.01-3.01l18.07-3.56c1.64.09,3.01,1.37,3.01,3.01Z"/><path class="cls-3" d="M25,7.66v27.19c0,1.64-1.37,3.01-3.01,3.01l-17.97-3.65c-1.64,0-3.01-1.37-3.01-3.01V4.11c0-1.64,1.37-3.01,3.01-3.01l18.07,3.56c1.55,0,2.92,1.37,2.92,3.01Z"/><path class="cls-2" d="M28.01,38.87c-2.28,0-4.11-1.82-4.11-4.11,0-.64.55-1.19,1.19-1.19s1.19.55,1.19,1.19c0,1,.73,1.73,1.73,1.82l17.88-3.47h.18c1,0,1.82-.82,1.82-1.82V4.11c0-1-.73-1.73-1.73-1.82l-17.97,3.56h-.18c-1,0-1.82.82-1.82,1.82,0,.64-.55,1.19-1.19,1.19s-1.19-.55-1.19-1.19c0-2.19,1.73-4.01,4.01-4.11L45.71,0h.18c2.28,0,4.11,1.82,4.11,4.11v27.19c0,2.19-1.73,4.01-4.01,4.11l-17.79,3.47h-.18Z"/><path class="cls-2" d="M22.08,38.87h-.18l-17.88-3.56c-2.19-.09-4.01-1.92-4.01-4.11V4.11C0,1.82,1.82,0,4.11,0h.18l17.88,3.56c2.19.09,4.01,1.92,4.01,4.11v27.19c0,2.19-1.92,4.01-4.11,4.01ZM3.92,2.28c-1,.09-1.73.82-1.73,1.82v27.19c0,1,.82,1.82,1.82,1.82h.18l17.88,3.47c1-.09,1.73-.82,1.73-1.82V7.66c0-1-.82-1.82-1.82-1.82h-.18L3.92,2.28Z"/></g></svg>