<?xml version="1.0" encoding="UTF-8"?><svg id="Layer_1" xmlns="http://www.w3.org/2000/svg" viewBox="0 0 50 53.29"><defs><style>.cls-1{fill:#c2e3f7;}.cls-1,.cls-2,.cls-3{stroke-width:0px;}.cls-2{fill:#003087;}.cls-3{fill:#fff;}</style></defs><g id="_171_Contacts_Mane_Twitter"><path class="cls-1" d="M48.59,49.41v2.35H1.53v-2.35c0-12.94,10.59-23.53,23.53-23.53,6.47,0,12.35,2.59,16.59,6.94,4.24,4.24,6.94,10.12,6.94,16.59Z"/><circle class="cls-3" cx="25.06" cy="13.53" r="12.24" transform="translate(6.11 34.79) rotate(-76.66)"/><path class="cls-2" d="M48.59,53.29H1.53c-.82,0-1.53-.71-1.53-1.53v-2.35c0-13.76,11.18-25.06,25.06-25.06,6.71,0,12.94,2.59,17.65,7.29,4.71,4.71,7.29,11.06,7.29,17.65v2.35c0,.94-.71,1.65-1.41,1.65ZM2.94,50.35h44.12v-.94c0-5.88-2.35-11.41-6.47-15.65-4.12-4.12-9.76-6.47-15.65-6.47-12.12.12-22,10-22,22.12v.94Z"/><path class="cls-2" d="M25.06,27.29c-7.53,0-13.65-6.12-13.65-13.65S17.53,0,25.06,0s13.65,6,13.65,13.53-6.12,13.76-13.65,13.76ZM25.06,2.82c-5.88,0-10.71,4.82-10.71,10.71s4.82,10.71,10.71,10.71,10.71-4.82,10.71-10.71S30.94,2.82,25.06,2.82Z"/></g></svg>