<?xml version="1.0" encoding="UTF-8"?><svg id="Layer_1" xmlns="http://www.w3.org/2000/svg" viewBox="0 0 50 59.35"><defs><style>.cls-1{fill:#003087;}.cls-1,.cls-2{stroke-width:0px;}.cls-2{fill:#fff;}</style></defs><g id="_152_Twitter_Text_Chat"><path class="cls-2" d="M48.38,6.73v45.89c0,2.87-2.24,5.11-5.11,5.11H6.73c-2.87,0-5.11-2.24-5.11-5.11V6.73C1.62,3.87,3.87,1.62,6.73,1.62h36.53c2.74,0,5.11,2.24,5.11,5.11Z"/><path class="cls-1" d="M43.14,59.35H6.73c-3.74,0-6.73-2.99-6.73-6.73V6.73C0,2.99,2.99,0,6.73,0h36.53c3.74,0,6.73,2.99,6.73,6.73v45.89c-.12,3.62-3.12,6.73-6.86,6.73ZM6.73,3.24c-1.99,0-3.62,1.62-3.62,3.62v45.88c0,2,1.62,3.62,3.62,3.62h36.53c2,0,3.62-1.62,3.62-3.62V6.73c0-1.99-1.62-3.62-3.62-3.62H6.73v.13Z"/><path class="cls-1" d="M42.14,15.71H7.86c-.87,0-1.62-.75-1.62-1.62s.75-1.62,1.62-1.62h34.29c.87,0,1.62.75,1.62,1.62s-.87,1.62-1.62,1.62Z"/><path class="cls-1" d="M42.14,28.18H7.86c-.87,0-1.62-.75-1.62-1.62s.75-1.62,1.62-1.62h34.29c.87,0,1.62.75,1.62,1.62s-.87,1.62-1.62,1.62Z"/><path class="cls-1" d="M28.06,40.65H7.86c-.87,0-1.62-.75-1.62-1.62s.75-1.62,1.62-1.62h20.32c.87,0,1.62.75,1.62,1.62s-.87,1.62-1.75,1.62Z"/></g></svg>