<?xml version="1.0" encoding="UTF-8"?><svg id="Layer_1" xmlns="http://www.w3.org/2000/svg" viewBox="0 0 50 59.08"><defs><style>.cls-1{fill:#c2e3f7;}.cls-1,.cls-2,.cls-3{stroke-width:0px;}.cls-2{fill:#003087;}.cls-3{fill:#fff;}</style></defs><g id="_161_Twitter_Lock_Locked"><path class="cls-1" d="M24.88,32.71c2.54,0,4.6,2.06,4.6,4.6s-2.06,4.6-4.6,4.6-4.6-2.06-4.6-4.6,2.06-4.6,4.6-4.6Z"/><path class="cls-3" d="M24.88,42.04c2.61,0,4.73-2.11,4.73-4.73s-2.11-4.73-4.73-4.73-4.73,2.11-4.73,4.73,2.11,4.73,4.73,4.73ZM48.26,21.77v35.82H1.62V21.77h46.64Z"/><path class="cls-2" d="M48.26,59.08H1.62c-.87,0-1.62-.75-1.62-1.62V21.77c0-.87.75-1.62,1.62-1.62h7.84c.87,0,1.62.75,1.62,1.62s-.75,1.62-1.62,1.62H3.23v32.59h43.53V23.38h-6.22c-.87,0-1.62-.75-1.62-1.62s.75-1.62,1.62-1.62h7.84c.87,0,1.62.75,1.62,1.62v35.82c-.25.75-1,1.49-1.74,1.49Z"/><path class="cls-2" d="M40.42,23.38H9.33c-.87,0-1.62-.75-1.62-1.62v-4.73C7.84,7.71,15.42,0,24.88,0c4.6,0,8.83,1.74,12.07,4.97,3.23,3.23,4.97,7.46,4.97,12.06v4.73c.12.87-.62,1.62-1.49,1.62ZM10.95,20.27h27.98v-3.11c0-3.73-1.49-7.21-4.1-9.95-2.61-2.61-6.09-4.1-9.95-4.1-7.71,0-14.05,6.22-14.05,14.05v3.11h.12Z"/><path class="cls-2" d="M24.88,43.53c-3.48,0-6.22-2.74-6.22-6.22s2.74-6.22,6.22-6.22,6.22,2.74,6.22,6.22-2.74,6.22-6.22,6.22ZM24.88,34.2c-1.74,0-3.11,1.37-3.11,3.11s1.37,3.11,3.11,3.11,3.11-1.37,3.11-3.11-1.37-3.11-3.11-3.11Z"/><path class="cls-2" d="M24.88,48.26c-.87,0-1.62-.75-1.62-1.62v-4.73c0-.87.75-1.62,1.62-1.62s1.62.75,1.62,1.62v4.73c0,.87-.75,1.62-1.62,1.62Z"/></g></svg>