<svg class="account-icon" xmlns="http://www.w3.org/2000/svg" viewBox="0 0 24 25" title="Account">
    <g id="Group_18" data-name="Group 18" transform="translate(0 5.413)">
        <path id="Path_1" data-name="Path 1"
            d="M293.568,498.677a15.967,15.967,0,0,1-11.821-5.05c-.115-.124-.088-.207-.016-.329a10.367,10.367,0,0,1,5.513-4.291,18.09,18.09,0,0,1,7.659-1.089,16.347,16.347,0,0,1,7.181,2.021,9.309,9.309,0,0,1,3.529,3.351.261.261,0,0,1-.045.367,15.591,15.591,0,0,1-9.623,4.857c-.325.046-.653.077-.981.1C294.527,498.642,294.088,498.654,293.568,498.677Z"
            transform="translate(-281.669 -479.089)" fill="#fff"></path>
        <path id="Path_2" data-name="Path 2"
            d="M389.67,229.993a6.413,6.413,0,1,1,6.408-6.415A6.419,6.419,0,0,1,389.67,229.993Z"
            transform="translate(-377.654 -222.58)" fill="#fff"></path>
    </g>
</svg>