<svg xmlns="http://www.w3.org/2000/svg" width="160" height="38.594" style="fill:#fff;width:160;height:38.594"><path d="M61.858 2.235c.393-.714.905-.873 3.036-.873h.392V.487H53.419v.875h.712c2.127 0 2.6.159 3.035.873.395.716.472 1.307.472 4.8v5.2H44v-5.2c0-3.5.042-4.05.471-4.8.4-.714.872-.873 3.04-.873h.471V.487h-17.86v.875c1.813 0 2.718.832 2.718 2.539a7.744 7.744 0 0 1-.312 2.062l-.513 1.669-3.9 13.934h-.079L20.385.485h-1.063l-6.78 21.081h-.08L7.85 6.282l-.473-1.548a5.954 5.954 0 0 1-.357-1.748c0-1.07.555-1.425 2.526-1.585a.487.487 0 0 0 .234-.04V.487H0v.875l.276.04c1.81.077 2.562.872 3.35 3.533l.591 1.981 6.309 20.486h.906L18.37 5.728h.077l7.887 21.674h.87L32.96 7.591c.866-2.975 1.182-3.889 1.771-4.841a2.91 2.91 0 0 1 2.493-1.388c1.722.031 2.124.217 2.556.873.394.716.435 1.307.435 4.8v12.9c0 5.6-.156 5.953-3.311 5.953h-.67v.876h11.747v-.87h-.669c-3.114 0-3.313-.355-3.313-5.953V13.59h13.642v6.351c0 5.6-.2 5.953-3.313 5.953h-.906v.876h11.867v-.876H64.7c-3.114 0-3.311-.355-3.311-5.953v-12.9c-.004-3.499.075-4.054.469-4.806zm7.512 15.8h.984c.554 2.938 1.379 4.724 2.719 6.115a6.727 6.727 0 0 0 5.048 2.146c3.31 0 5.757-2.186 5.757-5.122 0-2.46-1.538-4.167-5.285-5.76l-1.774-.752c-3.272-1.429-4.925-2.539-5.952-4.008a7.572 7.572 0 0 1-1.261-4.091 6.489 6.489 0 0 1 6.82-6.548 7.479 7.479 0 0 1 6.113 2.778 3.853 3.853 0 0 0 .983-2.3h.869v6.87h-.869c-.983-4.011-3.588-6.431-6.9-6.431-2.724 0-4.5 1.625-4.5 4.128a4.882 4.882 0 0 0 2.33 3.81 20.835 20.835 0 0 0 3.9 2.024 42.5 42.5 0 0 1 4.771 2.343 7.221 7.221 0 0 1 3.508 6.671c0 4.287-3.39 7.34-8.2 7.34a9.094 9.094 0 0 1-7.138-3.292 6.326 6.326 0 0 0-.947 2.545h-.976v-8.46zm24.049-7.783a7.644 7.644 0 0 1 .551 3.021v.319h.079c1.657-2.224 3.628-3.34 5.793-3.34q4.023 0 4.972 3.576c2.282-2.7 3.825-3.576 6.269-3.576a5.172 5.172 0 0 1 3.981 1.79c.709.954.829 1.55.829 4.525v4.765c0 3.134 0 3.331.238 3.766.352.6.863.8 2.086.8h.275v.876h-7.882v-.88h.158c1.929 0 2.326-.434 2.326-2.5v-7.343c0-3.334-.749-4.409-3.2-4.409-1.655 0-3.234 1.114-4.968 3.416v6.274c0 3.175 0 3.331.278 3.766a1.845 1.845 0 0 0 1.887.8h.122v.876h-7.611v-.88h.2c1.932 0 2.328-.434 2.328-2.5l.038-2.063v-4.409c0-4.206-.709-5.321-3.352-5.321-1.578 0-2.68.678-4.65 2.9l-.2.2v6.63c0 3.175 0 3.331.275 3.766.32.558.868.8 1.973.8h.2v.876h-7.729v-.879h.195c1.936 0 2.328-.434 2.328-2.5l.039-2.063v-4.765c0-3.137-.039-3.336-.277-3.772-.312-.558-.867-.753-2.09-.753h-.195v-.913a22.968 22.968 0 0 0 4.535-.877h.2zm32.24 11.082c0 3.134.04 3.331.277 3.766.316.6.868.8 2.051.8h.437v.876H119.9v-.882h.673c1.885 0 2.283-.434 2.323-2.5v-6.868c0-4.05-.157-4.369-2.445-4.369h-.551v-.872a25.964 25.964 0 0 0 5.321-1.034h.434v11.081zM123.965.092a2.029 2.029 0 0 1 1.971 2.066 1.991 1.991 0 1 1-3.98 0 2.008 2.008 0 0 1 2.009-2.065zm10.486 11.67v9.607c0 3.614.556 4.683 2.367 4.683a2.972 2.972 0 0 0 2.406-1.585l.59.356a4.524 4.524 0 0 1-4.1 2.58 3.883 3.883 0 0 1-3.429-1.943c-.511-.993-.6-1.713-.6-4.687v-9.011h-2.283v-.875c2.322-.119 3.941-1.9 4.411-4.958h.633v4.958h4.773v.875h-4.773zm11.868 1.75h.081a6.7 6.7 0 0 1 5.64-3.259 5.6 5.6 0 0 1 3.9 1.315c1.142 1.032 1.38 2.063 1.38 5.357v4.41c0 3.134.038 3.331.276 3.766.315.6.867.8 2.089.8H160v.876h-8.162v-.883h.39c1.895 0 2.332-.434 2.332-2.5v-6.828c0-3.969-.791-5.121-3.592-5.121-1.773 0-3.545 1.311-4.652 3.49v6.4c0 3.175.039 3.331.277 3.766.315.6.866.8 2.088.8h.119v.876h-8v-.883h.432c1.891 0 2.289-.434 2.327-2.5V5.487c0-3.173-.316-3.69-2.327-3.69h-.272V.925h.193a20.14 20.14 0 0 0 3.51-.439 5.192 5.192 0 0 0 1.265-.4h.391v13.426zM58.554 32.953h4.087v.872h-3.118v1.443h2.764v.873h-2.764v1.49h3.157v.872h-4.126v-5.55zm5.746 4.742.582-.7a2.549 2.549 0 0 0 1.741.722.819.819 0 0 0 .976-.7v-.015c0-.4-.22-.611-1.244-.849-1.173-.285-1.835-.634-1.835-1.657v-.016a1.69 1.69 0 0 1 1.882-1.609 3.043 3.043 0 0 1 2 .7l-.519.738a2.49 2.49 0 0 0-1.5-.571.762.762 0 0 0-.9.658v.016c0 .428.252.618 1.315.872 1.165.286 1.764.706 1.764 1.626v.016a1.718 1.718 0 0 1-1.969 1.656 3.384 3.384 0 0 1-2.293-.887zm7.532-3.838h-1.748v-.9h4.473v.9h-1.748v4.646h-.977v-4.646zm5.668 1.755v-.01a.804.804 0 1 1 1.609 0v.01a.804.804 0 0 1-1.609 0zm5.422-1.709-.993.278-.2-.793 1.488-.475h.669v5.589h-.96v-4.6zm5.6-.095H85.75v-.855h3.874v.737l-2.48 4.813h-1.1zm5.89 2.149a1.606 1.606 0 0 1-1.3.595 1.752 1.752 0 0 1-1.952-1.761v-.015a1.922 1.922 0 0 1 2.055-1.919 1.994 1.994 0 0 1 1.535.587 2.819 2.819 0 0 1 .662 2.117v.016c0 1.784-.874 3.02-2.362 3.02a2.6 2.6 0 0 1-1.764-.665l.527-.746a1.867 1.867 0 0 0 1.26.523 1.56 1.56 0 0 0 1.335-1.751zm-.04-1.221v-.016a1.044 1.044 0 0 0-1.149-1.023 1.016 1.016 0 0 0-1.1 1.031v.016a1.009 1.009 0 0 0 1.126.991 1.021 1.021 0 0 0 1.119-.998zm2.559 3 1.9-1.625a2.058 2.058 0 0 0 1.032-1.5.83.83 0 0 0-.89-.865 1.581 1.581 0 0 0-1.268.833l-.693-.547a2.266 2.266 0 0 1 2.032-1.157 1.655 1.655 0 0 1 1.819 1.657v.016c0 .872-.457 1.348-1.433 2.149l-1.134.951h2.622v.856h-3.985v-.769z" class="cls-1"/></svg>