<svg xmlns="http://www.w3.org/2000/svg" data-name="Layer 1" style="fill:#fff" viewBox="0 0 370.06 62.91"><path d="M60.92 62.91 42.68 13.15h-.18L26.45 62.93h-2.1l-14.59-47-1.37-4.56C6.57 5.26 4.84 3.44.64 3.26l-.63-.11v-2h22.6v2a1.12 1.12 0 0 1-.54.09c-4.56.36-5.83 1.18-5.83 3.64a13.68 13.68 0 0 0 .81 4l1.1 3.55 10.67 35.11h.19L44.69 1.12h2.47l17.69 48.42h.16l9-32 1.18-3.83a17.46 17.46 0 0 0 .73-4.74c0-3.92-2.1-5.83-6.29-5.83v-2h16.5v2c-2.91.27-4.46 1.09-5.83 3.19s-2.1 4.28-4.1 11.12l-13.32 45.5Z" class="cls-1"/><path d="M101.77 31.15v14.59c0 12.86.45 13.68 7.66 13.68h1.58v2h-27.2v-2h1.54c7.3 0 7.66-.82 7.66-13.68V16.15c0-8-.09-9.38-1-11-1.09-1.64-2.1-2-7.11-2h-1.09v-2h27.2v2h-1.1c-5 0-6.1.36-7 2s-1.09 3-1.09 11v12h31.55v-12c0-8-.18-9.38-1.1-11s-2.09-2-7-2h-1.65v-2h27.39v2h-.91c-4.93 0-6.11.36-7 2s-1.1 3-1.1 11v29.64c0 12.86.46 13.68 7.66 13.68h1.35v2h-27.45v-2h2.1c7.2 0 7.66-.82 7.66-13.68V31.15ZM160.45 41.39h2.28c1.28 6.75 3.19 10.85 6.29 14a15.57 15.57 0 0 0 11.67 4.92c7.66 0 13.31-5 13.31-11.76 0-5.65-3.55-9.57-12.22-13.22l-4.1-1.74c-7.56-3.28-11.4-5.83-13.76-9.2a17.3 17.3 0 0 1-2.93-9.4c0-8.66 6.67-15 15.78-15 5.93 0 9.76 1.73 14.14 6.38a8.92 8.92 0 0 0 2.28-5.29h2v15.78h-2c-2.28-9.21-8.3-14.78-16-14.78-6.29 0-10.4 3.74-10.4 9.49 0 3.19 2 6.38 5.39 8.75 2.27 1.55 4 2.46 9 4.65 7.11 3.19 8.2 3.74 11 5.38a17.85 17.85 0 0 1 4.83 4.2 17.58 17.58 0 0 1 3.38 11.13c0 9.85-7.84 16.87-19 16.87a21.09 21.09 0 0 1-16.5-7.57 14.27 14.27 0 0 0-2.19 5.84h-2.28V41.39ZM216.07 23.52a17.41 17.41 0 0 1 1.28 6.93v.7h.18c3.83-5.11 8.39-7.66 13.4-7.66q9.3 0 11.5 8.21c5.28-6.2 8.84-8.21 14.49-8.21 3.65 0 7.48 1.73 9.21 4.11 1.65 2.18 1.92 3.55 1.92 10.39v10.94c0 7.21 0 7.66.54 8.67.82 1.36 2 1.82 4.84 1.82h.64v2h-18.24v-2h.36c4.47 0 5.38-1 5.38-5.75V36.84c0-7.67-1.73-10.13-7.38-10.13-3.83 0-7.49 2.56-11.49 7.84v14.41c0 7.3 0 7.66.64 8.67.63 1.27 2 1.82 4.37 1.82h.3v2h-17.6v-2h.45c4.47 0 5.38-1 5.38-5.75l.1-4.74V38.85c0-9.68-1.65-12.23-7.76-12.23-3.64 0-6.2 1.55-10.75 6.66-.1.09-.28.27-.46.46v15.22c0 7.3 0 7.66.63 8.67.74 1.27 2 1.82 4.56 1.82h.45v2h-17.88v-2h.46c4.47 0 5.37-1 5.37-5.75l.09-4.74V38.02c0-7.2-.09-7.66-.63-8.66-.73-1.28-2-1.73-4.83-1.73h-.46v-2.1a54.2 54.2 0 0 0 10.49-2ZM290.65 48.96c0 7.21.08 7.66.63 8.67.73 1.36 2 1.82 4.74 1.82h1v2h-19.7v-2h1.55c4.38 0 5.29-1 5.38-5.75V37.93c0-9.3-.37-10-5.67-10h-1.26v-2a60.45 60.45 0 0 0 12.31-2.37h1V49M286.72.15a4.68 4.68 0 0 1 4.56 4.74 4.61 4.61 0 1 1-9.21 0 4.63 4.63 0 0 1 4.65-4.74ZM311.01 26.99v22.06c0 8.3 1.27 10.76 5.47 10.76 2.09 0 3.83-1.18 5.56-3.64l1.37.82a10.5 10.5 0 0 1-9.49 5.92 9 9 0 0 1-7.91-4.46c-1.19-2.28-1.36-3.93-1.36-10.76v-20.7h-5.3v-2c5.39-.27 9.12-4.37 10.22-11.4h1.44v11.4h11v2ZM338.43 31h.17c3.56-5 7.85-7.48 13.05-7.48 3.73 0 6.84 1 9 3 2.65 2.37 3.19 4.74 3.19 12.32v10.11c0 7.21.1 7.66.64 8.67.73 1.36 2 1.82 4.84 1.82h.72v2h-18.85v-2h.91c4.38 0 5.38-1 5.38-5.75V38.02c0-9.12-1.83-11.76-8.3-11.76-4.1 0-8.21 3-10.75 8v14.68c0 7.3.08 7.66.63 8.67.73 1.36 2 1.82 4.83 1.82h.28v2h-18.51v-2h1c4.38 0 5.29-1 5.38-5.75v-41.1c0-7.3-.73-8.48-5.38-8.48h-.65v-2h.46a46.87 46.87 0 0 0 8.11-1 12.09 12.09 0 0 0 2.92-.91h.92v30.82Z" class="cls-1"/></svg>