<svg xmlns="http://www.w3.org/2000/svg" version="1.1" viewBox="-5.0 -10.0 110.0 135.0">
    <path fill="#1c4aa0"
        d="m79.898 72.102c5.082-6.7109 8.1016-15.062 8.1016-24.102 0-22.059-17.941-40-40-40s-40 17.941-40 40 17.941 40 40 40c8.6914 0 16.738-2.8008 23.309-7.5312l9.6094 9.6094c1.1719 1.1719 2.7109 1.7617 4.2383 1.7617 1.5312 0 3.0703-0.58984 4.2383-1.7617 2.3398-2.3398 2.3398-6.1406 0-8.4805zm-31.898 3.8984c-15.441 0-28-12.559-28-28s12.559-28 28-28 28 12.559 28 28-12.559 28-28 28z" />
</svg>