<?xml version="1.0" encoding="UTF-8"?><svg id="Layer_2" xmlns="http://www.w3.org/2000/svg" viewBox="0 0 48 48"><defs><style>.cls-1{fill:#00b0b9;}.cls-1,.cls-2{stroke-width:0px;}.cls-2{fill:#fff;}</style></defs><circle class="cls-1" cx="24" cy="24" r="24"/><path class="cls-2" d="M9.33,21.55c.25-.54.68-.7,1.25-.7,2.5.02,4.99,0,7.49,0,.53,0,.87.23,1.01.65.18.56-.19,1.14-.77,1.2-.11.01-.23.01-.35.01-2.49,0-4.98,0-7.46,0-.57,0-.96-.19-1.17-.72v-.46Z"/><path class="cls-2" d="M27.49,15.25h-.42c-4.64,0-9.29,0-13.93,0-.17,0-.35,0-.51-.05-.42-.11-.68-.51-.65-.97.03-.42.36-.77.79-.82.12-.01.25-.02.37-.02,5,0,10,0,15,0,.88,0,1.2.32,1.2,1.19,0,.21,0,.42,0,.67.12,0,.22,0,.33,0,1.15,0,2.31.01,3.46,0,.53,0,.87.21,1.1.67.77,1.55,1.54,3.1,2.33,4.63.26.5.58.97.9,1.43.34.49.72.95,1.09,1.41.21.27.32.56.31.9,0,1.91,0,3.83,0,5.74,0,.7-.36,1.06-1.07,1.07-.77,0-1.54,0-2.31,0-.18,0-.26.04-.33.22-.56,1.56-1.93,2.54-3.53,2.53-1.6,0-2.95-.97-3.52-2.54-.06-.17-.15-.21-.31-.21-1.68,0-3.37,0-5.05,0-.19,0-.26.06-.32.23-.55,1.55-1.9,2.51-3.5,2.52-1.59.01-2.97-.97-3.53-2.52-.06-.18-.14-.23-.33-.23-.69.01-1.38.01-2.08,0-.58,0-.98-.35-1.02-.85-.04-.59.35-1.01.99-1.02.66-.01,1.33,0,1.99,0,.11,0,.21,0,.34,0,.17-.58.43-1.11.84-1.56,1.88-2.12,5.34-1.45,6.28,1.23.09.27.21.34.48.34,1.61-.01,3.21-.01,4.82,0,.22,0,.33-.05.41-.28.52-1.54,1.92-2.54,3.52-2.55,1.6,0,3.02,1.02,3.53,2.57.07.2.16.26.36.26.48-.01.96,0,1.48,0v-.3c0-1.41,0-2.83,0-4.24,0-.15-.06-.32-.15-.44-.33-.45-.69-.88-1.02-1.33-.13-.17-.26-.24-.48-.24-2.24,0-4.48,0-6.72,0-.82,0-1.16-.33-1.16-1.15,0-1.97,0-3.94,0-5.91,0-.11,0-.23,0-.38ZM29.37,20.81h5.24c-.61-1.21-1.2-2.39-1.8-3.55-.04-.07-.17-.14-.27-.14-.55-.01-1.1,0-1.64,0-.51,0-1.01,0-1.53,0v3.7ZM31.65,32c1.02,0,1.85-.83,1.86-1.85,0-1.02-.84-1.87-1.88-1.86-1.02,0-1.85.85-1.84,1.86,0,1.02.84,1.85,1.86,1.85ZM20.78,30.14c0-1.02-.83-1.85-1.85-1.85-1.04,0-1.87.84-1.86,1.87.01,1.02.85,1.84,1.87,1.83,1.02,0,1.85-.84,1.84-1.86Z"/><path class="cls-2" d="M15.77,17.21c1.3,0,2.6,0,3.89,0,.56,0,.95.34.99.84.04.56-.35,1-.94,1.01-.5.01-1,0-1.5,0-2.11,0-4.21,0-6.32,0-.54,0-.91-.27-1.01-.72-.13-.59.28-1.12.9-1.13.87-.01,1.75,0,2.62,0,.45,0,.9,0,1.36,0Z"/><path class="cls-2" d="M13.93,24.54c.73,0,1.46-.02,2.19,0,.64.02,1.04.65.82,1.23-.15.39-.45.61-.86.61-1.43.01-2.87.01-4.3,0-.53,0-.92-.42-.92-.92,0-.51.39-.92.94-.93.71-.01,1.42,0,2.13,0h0Z"/></svg>