<?xml version="1.0" encoding="UTF-8"?><svg id="Layer_2" xmlns="http://www.w3.org/2000/svg" viewBox="0 0 48 48"><defs><style>.cls-1{fill:#00b0b9;}.cls-1,.cls-2{stroke-width:0px;}.cls-2{fill:#fff;}</style></defs><circle class="cls-1" cx="24" cy="24" r="24"/><path class="cls-2" d="M23.04,31.08c-.33,1.1-.86,2-1.77,2.63-.69.47-1.46.73-2.3.75-1.02.02-1.93-.27-2.73-.9-.8-.63-1.28-1.46-1.54-2.44-.34-.03-.65-.04-.97-.08-1.07-.12-1.86-.68-2.36-1.63-.24-.46-.36-.96-.36-1.5.01-2.41,0-4.83,0-7.24,0-1.34.02-2.67-.01-4.01-.03-1.25,1-2.94,2.79-3.07.28-.02.56-.03.84-.03,4.17,0,8.34,0,12.51,0,.24,0,.48.02.72.02,1.13,0,2.55.91,2.87,2.54.03.17.06.35.08.5.21.14.41.09.61.09.86,0,1.72.03,2.57-.01.57-.03.99.17,1.38.56.95.97,1.91,1.92,2.87,2.88.37.37.72.74,1.1,1.1.32.31.47.65.46,1.11-.02,2.55-.01,5.11-.01,7.66,0,.22.03.44-.11.63-.19.25-.42.41-.75.41-.74-.01-1.48,0-2.22,0-.2,0-.4-.03-.61.08-.27,1.05-.82,1.93-1.72,2.56-.71.5-1.5.77-2.36.75-2.22-.06-3.57-1.25-4.24-3.35-.79-.08-1.59-.02-2.38-.03-.78,0-1.55-.03-2.36.01ZM14.72,29.31c.08-.23.13-.42.21-.61.08-.2.18-.4.29-.59.81-1.48,2.72-2.5,4.72-1.97,1.46.39,2.42,1.33,2.95,2.73.06.16.12.33.2.51,1.58,0,3.13.02,4.64,0,.06-.08.09-.1.11-.14.25-.74.59-1.44,1.15-2.01.07-.08.1-.21.11-.33.02-.16,0-.32,0-.48,0-3.13,0-6.26,0-9.4,0-.16,0-.32-.02-.48-.08-.76-.63-1.26-1.39-1.28-.22,0-.44,0-.66,0-3.89,0-7.78,0-11.67,0-.42,0-.84,0-1.26,0-.77.02-1.31.53-1.38,1.3-.02.16-.02.32-.02.48,0,3.49,0,6.98,0,10.47,0,.22,0,.44.03.66.05.45.29.79.69.99.4.21.82.29,1.3.14ZM30.88,26.11c.74-.11,1.49-.16,2.23.04.77.22,1.43.61,1.97,1.2.53.56.83,1.25,1.04,1.97.62.1,1.46.1,1.95-.02.02-.12.05-.26.05-.39,0-1.84,0-3.67,0-5.51,0-.13-.03-.27-.06-.43-.14-.01-.26-.03-.37-.03-.48,0-.96,0-1.44,0-1.6,0-3.19,0-4.79,0-.21,0-.44-.05-.62.07-.1.67-.08,2.58.03,3.1ZM29.45,30.2c-.01,1.42,1.11,2.57,2.53,2.56,1.14,0,2.49-.88,2.52-2.52.02-1.41-1.1-2.55-2.53-2.55-1.47,0-2.54,1.22-2.52,2.51ZM21.4,30.17c-.02-1.37-1.17-2.51-2.55-2.48-1.41.02-2.54,1.11-2.51,2.58.03,1.64,1.37,2.51,2.54,2.48,1.56-.03,2.52-1.26,2.52-2.58ZM30.85,18.47c-.1.78-.08,2.3.04,2.75.14,0,.3.02.45.02,1.14,0,2.27,0,3.41,0,.58,0,1.16,0,1.73-.01.09,0,.17-.05.28-.08-.06-.09-.08-.14-.12-.18-.77-.78-1.55-1.55-2.32-2.33-.15-.15-.31-.23-.53-.22-.9,0-1.79,0-2.69,0-.08,0-.15.03-.26.05Z"/></svg>