<?xml version="1.0" encoding="UTF-8"?><svg id="Layer_2" xmlns="http://www.w3.org/2000/svg" viewBox="0 0 48 48"><defs><style>.cls-1{fill:#00b0b9;}.cls-1,.cls-2,.cls-3{stroke-width:0px;}.cls-2{fill:#fff;}.cls-3{fill:#0c4884;}</style></defs><circle class="cls-1" cx="24" cy="24" r="24"/><path class="cls-2" d="M14.63,16.18l-.92.87c-.62-.66-1.33-.99-2.1-.99-.66,0-1.21.22-1.66.67-.45.45-.68,1-.68,1.66,0,.46.1.87.3,1.22.2.36.48.63.85.84.37.2.77.3,1.22.3.38,0,.73-.07,1.04-.21.31-.14.66-.4,1.04-.78l.89.93c-.51.5-.99.84-1.44,1.03-.45.19-.97.29-1.55.29-1.07,0-1.95-.34-2.63-1.02-.68-.68-1.02-1.55-1.02-2.61,0-.69.16-1.3.47-1.83.31-.53.75-.96,1.33-1.29.58-.32,1.2-.49,1.87-.49.57,0,1.11.12,1.64.36.53.24.98.58,1.36,1.02Z"/><path class="cls-2" d="M15.5,14.8h1.28v7.06h-1.28v-7.06Z"/><path class="cls-2" d="M18.43,14.67c.22,0,.42.08.58.24s.24.36.24.59-.08.42-.24.58c-.16.16-.35.24-.57.24s-.42-.08-.58-.25c-.16-.16-.24-.36-.24-.6s.08-.42.24-.58c.16-.16.35-.24.57-.24ZM17.8,16.76h1.28v5.09h-1.28v-5.09Z"/><path class="cls-2" d="M25.22,17.79l-1.06.58c-.2-.21-.4-.35-.59-.44-.2-.08-.42-.12-.69-.12-.48,0-.86.14-1.16.43-.3.29-.44.65-.44,1.1s.14.79.43,1.06.66.41,1.12.41c.57,0,1.02-.2,1.33-.58l1.01.69c-.55.71-1.32,1.07-2.31,1.07-.9,0-1.6-.26-2.1-.8-.51-.53-.76-1.15-.76-1.86,0-.49.12-.95.37-1.36.25-.41.59-.74,1.03-.98s.93-.36,1.48-.36c.5,0,.96.1,1.36.3s.73.49.99.86Z"/><path class="cls-2" d="M26.38,14.8h1.28v4.07l1.88-2.1h1.6l-2.19,2.44,2.46,2.65h-1.59l-2.16-2.35v2.35h-1.28v-7.06Z"/><path class="cls-3" d="M39.07,19.15l.78.89-.35.32-.35.32,1.11,1.17h-1.59l-.45-.47c-.72.43-1.4.64-2.02.64-.53,0-.95-.15-1.28-.46s-.49-.71-.49-1.19c0-.37.09-.71.28-1.04.18-.32.5-.66.95-1.01-.44-.6-.67-1.12-.67-1.58,0-.34.15-.68.44-1.01.29-.33.71-.5,1.24-.5s.95.16,1.24.49c.29.33.43.66.43.99,0,.26-.07.51-.2.75-.13.24-.44.6-.92,1.07.56.66.92,1.07,1.08,1.23.1-.08.35-.29.76-.64ZM37.36,20.48c-.24-.24-.58-.63-1.02-1.18-.46.38-.69.72-.69,1.01,0,.13.06.26.19.37.13.11.29.17.48.17.28,0,.62-.12,1.04-.37ZM36.58,17.63c.35-.3.52-.56.52-.79,0-.12-.04-.21-.12-.29s-.18-.11-.31-.11c-.12,0-.22.04-.3.13-.08.08-.12.18-.12.29,0,.22.11.48.33.77Z"/><path class="cls-2" d="M14.44,25.76l-.92.87c-.62-.66-1.33-.99-2.1-.99-.66,0-1.21.22-1.66.67-.45.45-.68,1-.68,1.66,0,.46.1.87.3,1.22.2.36.48.63.85.84.37.2.77.3,1.22.3.38,0,.73-.07,1.04-.21.31-.14.66-.4,1.04-.78l.89.93c-.51.5-.99.84-1.44,1.03-.45.19-.97.29-1.55.29-1.07,0-1.95-.34-2.63-1.02-.68-.68-1.02-1.55-1.02-2.61,0-.69.16-1.3.47-1.83.31-.53.75-.96,1.33-1.29.58-.32,1.2-.49,1.87-.49.57,0,1.11.12,1.64.36.53.24.98.58,1.36,1.02Z"/><path class="cls-2" d="M17.84,26.22c.48,0,.93.12,1.36.36s.75.57.99.98c.24.41.36.86.36,1.33s-.12.93-.36,1.35c-.24.42-.56.75-.98.98-.41.24-.87.35-1.36.35-.73,0-1.35-.26-1.87-.78-.52-.52-.78-1.15-.78-1.89,0-.8.29-1.46.88-1.99.51-.46,1.1-.69,1.76-.69ZM17.86,27.42c-.4,0-.73.14-.99.41-.26.28-.4.63-.4,1.06s.13.8.39,1.08.59.41.99.41.73-.14,1-.42c.27-.28.4-.63.4-1.07s-.13-.79-.39-1.06c-.26-.27-.59-.41-1-.41Z"/><path class="cls-2" d="M21.44,24.38h1.28v7.06h-1.28v-7.06Z"/><path class="cls-2" d="M23.74,24.38h1.28v7.06h-1.28v-7.06Z"/><path class="cls-2" d="M31.28,29.26h-4.1c.06.36.22.65.48.86.26.21.58.32.98.32.48,0,.89-.17,1.23-.5l1.08.51c-.27.38-.59.66-.96.84-.38.18-.82.27-1.33.27-.8,0-1.45-.25-1.95-.76-.5-.5-.75-1.13-.75-1.89s.25-1.42.75-1.94,1.13-.77,1.88-.77c.8,0,1.45.26,1.96.77.5.51.75,1.19.75,2.03v.24ZM30,28.26c-.08-.28-.25-.51-.5-.69-.25-.18-.54-.27-.87-.27-.36,0-.67.1-.94.3-.17.12-.33.34-.47.66h2.77Z"/><path class="cls-2" d="M37.3,27.38l-1.06.58c-.2-.21-.4-.35-.59-.44-.2-.08-.42-.12-.69-.12-.48,0-.86.14-1.16.43-.3.29-.44.65-.44,1.1s.14.79.43,1.06.66.41,1.12.41c.57,0,1.02-.2,1.33-.58l1.01.69c-.55.71-1.32,1.07-2.31,1.07-.9,0-1.6-.26-2.1-.8-.51-.53-.76-1.15-.76-1.86,0-.49.12-.95.37-1.36.25-.41.59-.74,1.03-.98s.93-.36,1.48-.36c.5,0,.96.1,1.36.3s.73.49.99.86Z"/><path class="cls-2" d="M38.6,24.47h1.28v1.88h.76v1.1h-.76v3.99h-1.28v-3.99h-.66v-1.1h.66v-1.88Z"/></svg>